# xmcd
#
# Track frame offsets:
#	150
#	9722
#	19127
#	28816
#	37971
#	49246
#	58197
#	70547
#	80771
#	93760
#	103404
#	114270
#	124799
#	136362
#	146764
#	159138
#	168989
#	180221
#	190445
#	199092
#	209542
#	221207
#
# Disc length: 3101 seconds
#
# Revision: 1
# Processed by: cddbd v1.5.2PL0 Copyright (c) Steve Scherf et al.
# Submitted via: audiograbber 1.83.01
#
DISCID=3c0c1b16
DTITLE=Various Artist - R&B Humdingers Vol.11
DYEAR=2012
DGENRE=Blues
TTITLE0=Sugar Boy Crawford - Round And Round
TTITLE1=Joe Perkins And The Rookies - Ain't You Glad Nature Did It
TTITLE2=Faye Adams - Witness To The Crime
TTITLE3=Joe Jones - To Prove My Love To You
TTITLE4=Sterling Harrison - Working On Your Heart
TTITLE5=The Boulevards - Chop Chop Hole In The Wall
TTITLE6=Red Prysock - What's The Word Thunderbird
TTITLE7=Billy Emerson - Holy Mackerel Baby
TTITLE8=Larry Darnell - Ramblin' Man
TTITLE9=Buddy Guy - Slop Around
TTITLE10=Chet "Poison" Ivey - The Slop
TTITLE11=Phil Flowers - No Kissing At The Hop
TTITLE12=Billy Tate - Don't Call My Name
TTITLE13=The Stewart Bothers - Sleep On The Porch
TTITLE14=The Royal Jokers - You Tickle Me Baby
TTITLE15=H.B Barnum - Tia Juana
TTITLE16=Tiny Morrie - You're The Girl For Me
TTITLE17=Eddie Boyd - Real Good Feeling
TTITLE18=LaVern Baker - Love Me Right
TTITLE19=The Memos - The Biddy Leg
TTITLE20=Roy Gaines - Isabella
TTITLE21=Donnie Elbert - Wild Child	
EXTD=
EXTT0=
EXTT1=
EXTT2=
EXTT3=
EXTT4=
EXTT5=
EXTT6=
EXTT7=
EXTT8=
EXTT9=
EXTT10=
EXTT11=
EXTT12=
EXTT13=
EXTT14=
EXTT15=
EXTT16=
EXTT17=
EXTT18=
EXTT19=
EXTT20=
EXTT21=
PLAYORDER=
